<svg id="Layer_1" data-name="Layer 1" xmlns="http://www.w3.org/2000/svg" viewBox="0 0 512 512"><defs><style>.cls-1{fill:#ffd38d;}.cls-2{fill:#6d4135;}</style></defs><title>volume-muted-filled</title><path class="cls-1" d="M23.28,279.28V232.72a46.55,46.55,0,0,1,46.55-46.55h46.55l116.38-93.1V418.93l-116.38-93.1H69.83A46.55,46.55,0,0,1,23.28,279.28Z"/><path class="cls-2" d="M232.76,442.21a23.27,23.27,0,0,1-14.54-5.1l-110-88H69.83A69.9,69.9,0,0,1,0,279.28V232.72A69.9,69.9,0,0,1,69.83,162.9h38.39l110-88A23.27,23.27,0,0,1,256,93.07V418.93a23.27,23.27,0,0,1-23.28,23.28ZM69.83,209.45a23.31,23.31,0,0,0-23.28,23.28v46.55a23.31,23.31,0,0,0,23.28,23.28h46.55a23.23,23.23,0,0,1,14.54,5.1l78.57,62.85v-229l-78.57,62.85a23.23,23.23,0,0,1-14.54,5.1Z"/><path class="cls-2" d="M452,255.9l53.2-53.2a23.27,23.27,0,1,0-32.91-32.91L419,223l-53.44-53.33a23.28,23.28,0,0,0-32.89,33l53.41,53.29-53.39,53.38a23.27,23.27,0,1,0,32.91,32.91l53.42-53.42,52.86,52.75a23.28,23.28,0,0,0,32.89-33Z"/></svg>